Coordinates
version=1
nRows=11
nColumns=40
inDegrees=yes

Units are S.I. units (second, meters, Newtons, ...)
If the header above contains a line with 'inDegrees', this indicates whether rotational values are in degrees (yes) or radians (no).

endheader
time	pelvis_tilt	pelvis_list	pelvis_rotation	pelvis_tx	pelvis_ty	pelvis_tz	hip_flexion_r	hip_adduction_r	hip_rotation_r	knee_angle_r	knee_angle_r_beta	ankle_angle_r	subtalar_angle_r	mtp_angle_r	hip_flexion_l	hip_adduction_l	hip_rotation_l	knee_angle_l	knee_angle_l_beta	ankle_angle_l	subtalar_angle_l	mtp_angle_l	lumbar_extension	lumbar_bending	lumbar_rotation	arm_flex_r	arm_add_r	arm_rot_r	elbow_flex_r	pro_sup_r	wrist_flex_r	wrist_dev_r	arm_flex_l	arm_add_l	arm_rot_l	elbow_flex_l	pro_sup_l	wrist_flex_l	wrist_dev_l
      4.89000000	    -33.71645103	     -1.13327240	      5.72357516	     -0.37499222	      0.70036179	     -0.74195311	     83.82825999	     -2.30212245	     -7.84299335	     92.30007991	      1.61094029	     29.84943277	      0.00000000	      0.00000000	     43.99239206	     -7.43908572	      4.96558485	     99.17001061	      1.73084320	    -10.15513330	      0.00000000	      0.00000000	      2.37990525	      3.93825407	     -6.28896303	     89.96180476	     -2.43824542	      7.96478251	     52.68259133	     72.72194030	      0.00000000	      0.00000000	     89.94538217	     -6.54153119	      6.86787473	     48.32638887	     75.38570154	      0.00000000	      0.00000000
      4.89500000	    -33.63923214	     -1.10179556	      5.79379914	     -0.37487458	      0.70169298	     -0.74205312	     83.61034538	     -2.37540083	     -7.83792927	     92.07510504	      1.60701374	     29.79006268	      0.00000000	      0.00000000	     44.10730518	     -7.39213586	      4.83582760	     99.20170079	      1.73139630	    -10.10526126	      0.00000000	      0.00000000	      2.36171518	      3.89821255	     -6.35675760	     89.96170234	     -2.44700886	      8.00010754	     52.68164815	     72.73630714	      0.00000000	      0.00000000	     89.94522723	     -6.57481838	      6.94012594	     48.26828776	     75.40145557	      0.00000000	      0.00000000
      4.90000000	    -33.53390714	     -1.07965630	      5.85124672	     -0.37495834	      0.70315413	     -0.74213893	     83.38471126	     -2.41852817	     -7.80569959	     91.83610121	      1.60284234	     29.65956161	      0.00000000	      0.00000000	     44.24091706	     -7.22718826	      4.79532199	     99.25791765	      1.73237747	    -10.08066209	      0.00000000	      0.00000000	      2.29276317	      3.87823458	     -6.39805139	     89.96159507	     -2.43533022	      8.04952223	     52.63665122	     72.75794386	      0.00000000	      0.00000000	     89.94528737	     -6.61168557	      7.00091654	     48.26369189	     75.41700678	      0.00000000	      0.00000000
      4.90500000	    -33.47983994	     -1.07407716	      5.94697369	     -0.37478218	      0.70460487	     -0.74232518	     83.18949930	     -2.51140316	     -7.80467935	     91.61086686	      1.59891126	     29.52034026	      0.00000000	      0.00000000	     44.37898224	     -7.16086763	      4.68728925	     99.24686217	      1.73218452	    -10.04481185	      0.00000000	      0.00000000	      2.29795012	      3.85265105	     -6.49562649	     89.96133359	     -2.46954512	      8.06794617	     52.56544197	     72.77162275	      0.00000000	      0.00000000	     89.94492177	     -6.64119937	      7.08545576	     48.20107735	     75.43668260	      0.00000000	      0.00000000
      4.91000000	    -33.40780763	     -1.05070524	      6.01835923	     -0.37463041	      0.70592841	     -0.74244695	     82.97394162	     -2.56998291	     -7.77816005	     91.39827623	      1.59520085	     29.47702771	      0.00000000	      0.00000000	     44.52074853	     -7.06524387	      4.59372418	     99.30420666	      1.73318537	    -10.02881022	      0.00000000	      0.00000000	      2.28821903	      3.83431671	     -6.52795083	     89.96111079	     -2.48278529	      8.07557180	     52.46040198	     72.78220076	      0.00000000	      0.00000000	     89.94464924	     -6.67128595	      7.15444166	     48.14719520	     75.45275261	      0.00000000	      0.00000000
      4.91500000	    -33.31646638	     -1.02412516	      6.09322175	     -0.37471962	      0.70748996	     -0.74262184	     82.74208172	     -2.64311269	     -7.75189745	     91.11630994	      1.59027961	     29.36168659	      0.00000000	      0.00000000	     44.66850332	     -6.96420910	      4.47215923	     99.36185519	      1.73419152	    -10.02780393	      0.00000000	      0.00000000	      2.23743971	      3.79703846	     -6.59510196	     89.96088752	     -2.47254118	      8.10517975	     52.30305831	     72.79323851	      0.00000000	      0.00000000	     89.94470356	     -6.69763864	      7.22835557	     48.11051459	     75.47126416	      0.00000000	      0.00000000
      4.92000000	    -33.24189033	     -1.00163050	      6.16337054	     -0.37466732	      0.70891709	     -0.74276352	     82.52233640	     -2.69682566	     -7.72011771	     90.87778728	      1.58611660	     29.30081646	      0.00000000	      0.00000000	     44.82738004	     -6.88281443	      4.41494597	     99.37382043	      1.73440036	     -9.97910312	      0.00000000	      0.00000000	      2.22907715	      3.77009877	     -6.68941836	     89.96068778	     -2.45720009	      8.13216141	     52.24800632	     72.80964481	      0.00000000	      0.00000000	     89.94454255	     -6.76579021	      7.30206906	     48.03332405	     75.49011187	      0.00000000	      0.00000000
      4.92500000	    -33.14989033	     -0.96057840	      6.22687960	     -0.37453144	      0.71046422	     -0.74285678	     82.28459716	     -2.76001117	     -7.69395741	     90.62926617	      1.58177909	     29.17472844	      0.00000000	      0.00000000	     44.96063133	     -6.79648251	      4.37046930	     99.47286196	      1.73612896	     -9.87833905	      0.00000000	      0.00000000	      2.18737157	      3.73347472	     -6.73544846	     89.96048760	     -2.44755936	      8.17298576	     52.16774387	     72.82764573	      0.00000000	      0.00000000	     89.94429237	     -6.83436985	      7.37375466	     47.98609134	     75.50929395	      0.00000000	      0.00000000
      4.93000000	    -33.07975869	     -0.95257458	      6.33075755	     -0.37448495	      0.71206528	     -0.74298733	     82.04017140	     -2.82618825	     -7.67078750	     90.32572156	      1.57648124	     29.10604100	      0.00000000	      0.00000000	     45.12673062	     -6.71871083	      4.26469639	     99.52265802	      1.73699806	     -9.77154700	      0.00000000	      0.00000000	      2.15921973	      3.72161809	     -6.83021902	     89.96011940	     -2.44669227	      8.22968754	     51.94460645	     72.84061303	      0.00000000	      0.00000000	     89.94412983	     -6.88594386	      7.44623717	     47.97175747	     75.53057483	      0.00000000	      0.00000000
      4.93500000	    -33.00068763	     -0.92410867	      6.43343407	     -0.37432578	      0.71358980	     -0.74320049	     81.81460391	     -2.95497474	     -7.70854806	     90.03477693	      1.57140330	     28.96984754	      0.00000000	      0.00000000	     45.25819655	     -6.63226882	      4.14019892	     99.55466485	      1.73755669	     -9.64701516	      0.00000000	      0.00000000	      2.15381098	      3.69954461	     -6.95369121	     89.95994609	     -2.40154507	      8.27861559	     51.89111984	     72.86110148	      0.00000000	      0.00000000	     89.94385467	     -6.97142252	      7.54266328	     47.86192017	     75.55432485	      0.00000000	      0.00000000
      4.94000000	    -32.85953754	     -0.96568896	      6.53196472	     -0.37409840	      0.71530078	     -0.74324700	     81.50487645	     -2.98329511	     -7.73196552	     89.79398869	      1.56720075	     28.79762065	      0.00000000	      0.00000000	     45.34438574	     -6.56392137	      4.13432812	     99.62136072	      1.73872075	     -9.45978036	      0.00000000	      0.00000000	      2.08616896	      3.73860427	     -7.09911831	     89.95963947	     -2.34316764	      8.37600511	     51.71194494	     72.89115545	      0.00000000	      0.00000000	     89.94370005	     -7.09584752	      7.66412919	     47.75290110	     75.58921824	      0.00000000	      0.00000000
